<svg width="2265" height="640" viewBox="0 0 2265 640" fill="none" xmlns="http://www.w3.org/2000/svg">
<path fill-rule="evenodd" clip-rule="evenodd" d="M965.941 588L962.942 585C939.271 549.14 914.5 334.891 910.031 300C902.627 242.173 884.74 45.2318 831.117 26C777.365 6.71688 757.798 95.9608 751.085 127C740.554 175.675 733.501 226.536 727.039 276C719.736 331.932 699.219 532.483 667.948 565C647.629 550.687 634.678 473.175 630.982 455C614.537 374.16 590.052 139.229 543.094 100C469.832 38.7936 441.199 254.762 437.038 279C429.066 325.394 410.968 495.104 370.965 510C302.1 489.957 297.791 62.0235 194.074 162C142.691 211.536 135.654 438.024 83.9809 460C39.9074 478.741 15.4029 410.161 0.000605991 397C6.4721 422.34 40.8126 479.719 84.979 466C111.777 457.675 129.496 398.164 138.009 369C148.268 333.848 180.82 161.437 222.074 163C264.762 174.406 282.663 317.02 291.012 361C297.997 397.778 323.328 565.539 388.96 526C450.398 488.989 458.12 236.793 503.081 140C509.114 127.01 509.174 123.284 519.088 119C559.454 152.551 584.148 427.861 606.962 519C613.886 546.658 642.809 634.079 691.938 596C762.498 541.313 766.461 111.71 817.103 69C845.453 101.452 865.199 313.899 873.009 370C880.268 422.118 886.739 472.497 896.961 524C904.128 560.099 918.954 650.008 974.925 639C1070.01 620.3 1060.29 113.161 1115.11 53C1172.31 120.612 1157.77 620.526 1256.92 639C1309.3 648.759 1324.79 562.974 1331.96 529C1343.03 476.526 1347.3 425.472 1355.01 372C1363.01 316.508 1383.67 101.045 1412.1 69C1460.35 109.509 1470 544.354 1537.94 596C1561.69 614.055 1586.4 598.234 1597.94 581C1610.07 562.896 1615.42 541.727 1620.96 521C1645.07 430.881 1669.41 149.387 1710.09 120C1725.91 126.609 1730.37 147.837 1735.07 161C1767.68 252.267 1783.91 487.635 1837.96 525C1916.38 579.211 1945.7 312.971 1960.05 254C1967.1 225 1976.34 172.29 2008.07 163C2079.15 159.912 2081.77 565.735 2198.98 449C2225.93 422.169 2239.11 372.004 2264.02 343C2235.81 380.848 2222.97 408.863 2204.99 433C2175.28 472.882 2139.02 475.01 2116.99 418C2089.44 346.677 2085.15 258.058 2054.07 190C2035.16 148.623 1997.05 127.356 1969.07 178C1940.05 230.526 1922.26 345.392 1907 407C1899.74 436.303 1888.65 497.851 1858.97 509C1818.74 493.841 1801.01 324.785 1793.04 279C1788.69 254.025 1758.58 38.0868 1685.09 99C1639.91 136.449 1614.6 373.834 1598.98 453C1594.5 475.711 1582.07 532.276 1569.95 554L1561.95 564C1561.64 564.284 1561.52 564.589 1560.95 565C1529.63 532.032 1509.52 334.587 1502.04 278C1495.36 227.462 1488.49 177.944 1478.08 129C1471.13 96.2775 1454.47 11.3249 1401.12 26C1309.57 51.1784 1320.21 529.244 1263.94 588C1234.2 551.464 1202.7 216.99 1185.09 124C1177.97 86.4315 1165.08 -0.0685081 1115.12 4.07184e-05C1064.99 0.0685895 1052.29 84.3664 1045.09 121C1026.59 214.994 996.656 551.288 965.941 588Z" fill="#373737"/>
</svg>
